  0
SECTION
  2
HEADER
  9
$ACADVER
  1
AC1009
  9
$EXTMIN
 10
0.0
 20
0.0
 30
0.0
  9
$EXTMAX
 10
1000.0
 20
1000.0
 30
0.0
  9
$FILLMODE
 70
 0
  9
$SPLFRAME
 70
 1
  0
ENDSEC
  0
SECTION
  2
TABLES
  0
TABLE
  2
LAYER
 70
1
  0
LAYER
  2
0
 70
     0
 62
     7
  6
CONTINUOUS
  0
ENDTAB
  0
ENDSEC
  0
SECTION
  2
ENTITIES
  0
LINE
  8
0
 62
     0
 10
0
 20
5.29167
 30
0.0
 11
-7.05556
 21
5.29167
 31
0.0
  0
LINE
  8
0
 62
     0
 10
-7.05556
 20
5.29167
 30
0.0
 11
-7.05556
 21
0
 31
0.0
  0
LINE
  8
0
 62
     0
 10
-7.05556
 20
0
 30
0.0
 11
-7.05556
 21
-5.29167
 31
0.0
  0
LINE
  8
0
 62
     0
 10
-7.05556
 20
-5.29167
 30
0.0
 11
0
 21
-5.29167
 31
0.0
  0
LINE
  8
0
 62
     0
 10
0
 20
-5.29167
 30
0.0
 11
7.05556
 21
-5.29167
 31
0.0
  0
LINE
  8
0
 62
     0
 10
7.05556
 20
-5.29167
 30
0.0
 11
7.05556
 21
0
 31
0.0
  0
LINE
  8
0
 62
     0
 10
7.05556
 20
0
 30
0.0
 11
7.05556
 21
5.29167
 31
0.0
  0
LINE
  8
0
 62
     0
 10
7.05556
 20
5.29167
 30
0.0
 11
0
 21
5.29167
 31
0.0
  0
LINE
  8
0
 62
     0
 10
-2.11667
 20
4.58611
 30
0.0
 11
2.11667
 21
4.58611
 31
0.0
  0
LINE
  8
0
 62
     0
 10
2.11667
 20
4.58611
 30
0.0
 11
2.11667
 21
2.46944
 31
0.0
  0
LINE
  8
0
 62
     0
 10
2.11667
 20
2.46944
 30
0.0
 11
2.11667
 21
0.352778
 31
0.0
  0
LINE
  8
0
 62
     0
 10
2.11667
 20
0.352778
 30
0.0
 11
2.46944
 21
0.352778
 31
0.0
  0
LINE
  8
0
 62
     0
 10
2.46944
 20
0.352778
 30
0.0
 11
2.82222
 21
0.352778
 31
0.0
  0
LINE
  8
0
 62
     0
 10
2.82222
 20
0.352778
 30
0.0
 11
2.82222
 21
2.46944
 31
0.0
  0
LINE
  8
0
 62
     0
 10
2.82222
 20
2.46944
 30
0.0
 11
2.82222
 21
4.58611
 31
0.0
  0
LINE
  8
0
 62
     0
 10
2.82222
 20
4.58611
 30
0.0
 11
4.58611
 21
4.58611
 31
0.0
  0
LINE
  8
0
 62
     0
 10
4.58611
 20
4.58611
 30
0.0
 11
6.35
 21
4.58611
 31
0.0
  0
LINE
  8
0
 62
     0
 10
6.35
 20
4.58611
 30
0.0
 11
6.35
 21
0
 31
0.0
  0
LINE
  8
0
 62
     0
 10
6.35
 20
0
 30
0.0
 11
6.35
 21
-4.58611
 31
0.0
  0
LINE
  8
0
 62
     0
 10
6.35
 20
-4.58611
 30
0.0
 11
4.58611
 21
-4.58611
 31
0.0
  0
LINE
  8
0
 62
     0
 10
4.58611
 20
-4.58611
 30
0.0
 11
2.82222
 21
-4.58611
 31
0.0
  0
LINE
  8
0
 62
     0
 10
2.82222
 20
-4.58611
 30
0.0
 11
2.82222
 21
-2.82222
 31
0.0
  0
LINE
  8
0
 62
     0
 10
2.82222
 20
-2.82222
 30
0.0
 11
2.82222
 21
-1.05833
 31
0.0
  0
LINE
  8
0
 62
     0
 10
2.82222
 20
-1.05833
 30
0.0
 11
2.46944
 21
-1.05833
 31
0.0
  0
LINE
  8
0
 62
     0
 10
2.46944
 20
-1.05833
 30
0.0
 11
2.11667
 21
-1.05833
 31
0.0
  0
LINE
  8
0
 62
     0
 10
2.11667
 20
-1.05833
 30
0.0
 11
2.11667
 21
-2.82222
 31
0.0
  0
LINE
  8
0
 62
     0
 10
2.11667
 20
-2.82222
 30
0.0
 11
2.11667
 21
-4.58611
 31
0.0
  0
LINE
  8
0
 62
     0
 10
2.11667
 20
-4.58611
 30
0.0
 11
-2.11667
 21
-4.58611
 31
0.0
  0
LINE
  8
0
 62
     0
 10
-2.11667
 20
-4.58611
 30
0.0
 11
-6.35
 21
-4.58611
 31
0.0
  0
LINE
  8
0
 62
     0
 10
-6.35
 20
-4.58611
 30
0.0
 11
-6.35
 21
0
 31
0.0
  0
LINE
  8
0
 62
     0
 10
-6.35
 20
0
 30
0.0
 11
-6.35
 21
4.58611
 31
0.0
  0
LINE
  8
0
 62
     0
 10
-6.35
 20
4.58611
 30
0.0
 11
-2.11667
 21
4.58611
 31
0.0
  0
ENDSEC
  0
EOF
