  0
SECTION
  2
HEADER
  9
$ACADVER
  1
AC1009
  9
$EXTMIN
 10
0.0
 20
0.0
 30
0.0
  9
$EXTMAX
 10
1000.0
 20
1000.0
 30
0.0
  9
$FILLMODE
 70
 0
  9
$SPLFRAME
 70
 1
  0
ENDSEC
  0
SECTION
  2
TABLES
  0
TABLE
  2
LAYER
 70
1
  0
LAYER
  2
0
 70
     0
 62
     7
  6
CONTINUOUS
  0
ENDTAB
  0
ENDSEC
  0
SECTION
  2
ENTITIES
  0
LINE
  8
0
 62
     0
 10
-36.3361
 20
28.2222
 30
0.0
 11
-42.3333
 21
28.2222
 31
0.0
  0
LINE
  8
0
 62
     0
 10
-42.3333
 20
28.2222
 30
0.0
 11
-42.3333
 21
15.875
 31
0.0
  0
LINE
  8
0
 62
     0
 10
-42.3333
 20
15.875
 30
0.0
 11
-42.3333
 21
3.52778
 31
0.0
  0
LINE
  8
0
 62
     0
 10
-42.3333
 20
3.52778
 30
0.0
 11
-41.9806
 21
3.52778
 31
0.0
  0
LINE
  8
0
 62
     0
 10
-41.9806
 20
3.52778
 30
0.0
 11
-41.6278
 21
3.52778
 31
0.0
  0
LINE
  8
0
 62
     0
 10
-41.6278
 20
3.52778
 30
0.0
 11
-41.6278
 21
-1.05833
 31
0.0
  0
LINE
  8
0
 62
     0
 10
-41.6278
 20
-1.05833
 30
0.0
 11
-41.6278
 21
-5.64444
 31
0.0
  0
LINE
  8
0
 62
     0
 10
-41.6278
 20
-5.64444
 30
0.0
 11
-41.9806
 21
-5.64444
 31
0.0
  0
LINE
  8
0
 62
     0
 10
-41.9806
 20
-5.64444
 30
0.0
 11
-42.3333
 21
-5.64444
 31
0.0
  0
LINE
  8
0
 62
     0
 10
-42.3333
 20
-5.64444
 30
0.0
 11
-42.3333
 21
-16.9333
 31
0.0
  0
LINE
  8
0
 62
     0
 10
-42.3333
 20
-16.9333
 30
0.0
 11
-42.3333
 21
-28.2222
 31
0.0
  0
LINE
  8
0
 62
     0
 10
-42.3333
 20
-28.2222
 30
0.0
 11
-32.8083
 21
-28.2222
 31
0.0
  0
LINE
  8
0
 62
     0
 10
-32.8083
 20
-28.2222
 30
0.0
 11
-23.2833
 21
-28.2222
 31
0.0
  0
LINE
  8
0
 62
     0
 10
-23.2833
 20
-28.2222
 30
0.0
 11
-23.2833
 21
-27.8694
 31
0.0
  0
LINE
  8
0
 62
     0
 10
-23.2833
 20
-27.8694
 30
0.0
 11
-23.2833
 21
-27.5167
 31
0.0
  0
LINE
  8
0
 62
     0
 10
-23.2833
 20
-27.5167
 30
0.0
 11
-18.3444
 21
-27.5167
 31
0.0
  0
LINE
  8
0
 62
     0
 10
-18.3444
 20
-27.5167
 30
0.0
 11
-13.4056
 21
-27.5167
 31
0.0
  0
LINE
  8
0
 62
     0
 10
-13.4056
 20
-27.5167
 30
0.0
 11
-13.4056
 21
-27.8694
 31
0.0
  0
LINE
  8
0
 62
     0
 10
-13.4056
 20
-27.8694
 30
0.0
 11
-13.4056
 21
-28.2222
 31
0.0
  0
LINE
  8
0
 62
     0
 10
-13.4056
 20
-28.2222
 30
0.0
 11
-4.93889
 21
-28.2222
 31
0.0
  0
LINE
  8
0
 62
     0
 10
-4.93889
 20
-28.2222
 30
0.0
 11
3.52778
 21
-28.2222
 31
0.0
  0
LINE
  8
0
 62
     0
 10
3.52778
 20
-28.2222
 30
0.0
 11
3.52778
 21
-27.8694
 31
0.0
  0
LINE
  8
0
 62
     0
 10
3.52778
 20
-27.8694
 30
0.0
 11
3.52778
 21
-27.5167
 31
0.0
  0
LINE
  8
0
 62
     0
 10
3.52778
 20
-27.5167
 30
0.0
 11
7.76111
 21
-27.5167
 31
0.0
  0
LINE
  8
0
 62
     0
 10
7.76111
 20
-27.5167
 30
0.0
 11
11.9944
 21
-27.5167
 31
0.0
  0
LINE
  8
0
 62
     0
 10
11.9944
 20
-27.5167
 30
0.0
 11
11.9944
 21
-27.8694
 31
0.0
  0
LINE
  8
0
 62
     0
 10
11.9944
 20
-27.8694
 30
0.0
 11
11.9944
 21
-28.2222
 31
0.0
  0
LINE
  8
0
 62
     0
 10
11.9944
 20
-28.2222
 30
0.0
 11
26.1056
 21
-28.2222
 31
0.0
  0
LINE
  8
0
 62
     0
 10
26.1056
 20
-28.2222
 30
0.0
 11
40.2167
 21
-28.2222
 31
0.0
  0
LINE
  8
0
 62
     0
 10
40.2167
 20
-28.2222
 30
0.0
 11
40.2167
 21
-27.8694
 31
0.0
  0
LINE
  8
0
 62
     0
 10
40.2167
 20
-27.8694
 30
0.0
 11
40.2167
 21
-27.5167
 31
0.0
  0
LINE
  8
0
 62
     0
 10
40.2167
 20
-27.5167
 30
0.0
 11
41.275
 21
-27.5167
 31
0.0
  0
LINE
  8
0
 62
     0
 10
41.275
 20
-27.5167
 30
0.0
 11
42.3333
 21
-27.5167
 31
0.0
  0
LINE
  8
0
 62
     0
 10
42.3333
 20
-27.5167
 30
0.0
 11
42.3333
 21
-22.225
 31
0.0
  0
LINE
  8
0
 62
     0
 10
42.3333
 20
-22.225
 30
0.0
 11
42.3333
 21
-16.9333
 31
0.0
  0
LINE
  8
0
 62
     0
 10
42.3333
 20
-16.9333
 30
0.0
 11
41.9806
 21
-16.9333
 31
0.0
  0
LINE
  8
0
 62
     0
 10
41.9806
 20
-16.9333
 30
0.0
 11
41.6278
 21
-16.9333
 31
0.0
  0
LINE
  8
0
 62
     0
 10
41.6278
 20
-16.9333
 30
0.0
 11
41.6278
 21
-5.64444
 31
0.0
  0
LINE
  8
0
 62
     0
 10
41.6278
 20
-5.64444
 30
0.0
 11
41.6278
 21
5.64444
 31
0.0
  0
LINE
  8
0
 62
     0
 10
41.6278
 20
5.64444
 30
0.0
 11
41.9806
 21
5.64444
 31
0.0
  0
LINE
  8
0
 62
     0
 10
41.9806
 20
5.64444
 30
0.0
 11
42.3333
 21
5.64444
 31
0.0
  0
LINE
  8
0
 62
     0
 10
42.3333
 20
5.64444
 30
0.0
 11
42.3333
 21
16.9333
 31
0.0
  0
LINE
  8
0
 62
     0
 10
42.3333
 20
16.9333
 30
0.0
 11
42.3333
 21
28.2222
 31
0.0
  0
LINE
  8
0
 62
     0
 10
42.3333
 20
28.2222
 30
0.0
 11
35.6306
 21
28.2222
 31
0.0
  0
LINE
  8
0
 62
     0
 10
35.6306
 20
28.2222
 30
0.0
 11
28.9278
 21
28.2222
 31
0.0
  0
LINE
  8
0
 62
     0
 10
28.9278
 20
28.2222
 30
0.0
 11
28.9278
 21
26.8111
 31
0.0
  0
LINE
  8
0
 62
     0
 10
28.9278
 20
26.8111
 30
0.0
 11
28.9278
 21
25.4
 31
0.0
  0
LINE
  8
0
 62
     0
 10
28.9278
 20
25.4
 30
0.0
 11
23.2833
 21
25.4
 31
0.0
  0
LINE
  8
0
 62
     0
 10
23.2833
 20
25.4
 30
0.0
 11
17.6389
 21
25.4
 31
0.0
  0
LINE
  8
0
 62
     0
 10
17.6389
 20
25.4
 30
0.0
 11
17.6389
 21
26.8111
 31
0.0
  0
LINE
  8
0
 62
     0
 10
17.6389
 20
26.8111
 30
0.0
 11
17.6389
 21
28.2222
 31
0.0
  0
LINE
  8
0
 62
     0
 10
17.6389
 20
28.2222
 30
0.0
 11
6.35
 21
28.2222
 31
0.0
  0
LINE
  8
0
 62
     0
 10
6.35
 20
28.2222
 30
0.0
 11
-4.93889
 21
28.2222
 31
0.0
  0
LINE
  8
0
 62
     0
 10
-4.93889
 20
28.2222
 30
0.0
 11
-4.93889
 21
27.8694
 31
0.0
  0
LINE
  8
0
 62
     0
 10
-4.93889
 20
27.8694
 30
0.0
 11
-4.93889
 21
27.5167
 31
0.0
  0
LINE
  8
0
 62
     0
 10
-4.93889
 20
27.5167
 30
0.0
 11
-12.7
 21
27.5167
 31
0.0
  0
LINE
  8
0
 62
     0
 10
-12.7
 20
27.5167
 30
0.0
 11
-20.4611
 21
27.5167
 31
0.0
  0
LINE
  8
0
 62
     0
 10
-20.4611
 20
27.5167
 30
0.0
 11
-20.4611
 21
27.8694
 31
0.0
  0
LINE
  8
0
 62
     0
 10
-20.4611
 20
27.8694
 30
0.0
 11
-20.4611
 21
28.2222
 31
0.0
  0
LINE
  8
0
 62
     0
 10
-20.4611
 20
28.2222
 30
0.0
 11
-22.9306
 21
28.2222
 31
0.0
  0
LINE
  8
0
 62
     0
 10
-22.9306
 20
28.2222
 30
0.0
 11
-25.4
 21
28.2222
 31
0.0
  0
LINE
  8
0
 62
     0
 10
-25.4
 20
28.2222
 30
0.0
 11
-25.4
 21
27.8694
 31
0.0
  0
LINE
  8
0
 62
     0
 10
-25.4
 20
27.8694
 30
0.0
 11
-25.4
 21
27.5167
 31
0.0
  0
LINE
  8
0
 62
     0
 10
-25.4
 20
27.5167
 30
0.0
 11
-27.8694
 21
27.5167
 31
0.0
  0
LINE
  8
0
 62
     0
 10
-27.8694
 20
27.5167
 30
0.0
 11
-30.3389
 21
27.5167
 31
0.0
  0
LINE
  8
0
 62
     0
 10
-30.3389
 20
27.5167
 30
0.0
 11
-30.3389
 21
27.8694
 31
0.0
  0
LINE
  8
0
 62
     0
 10
-30.3389
 20
27.8694
 30
0.0
 11
-30.3389
 21
28.2222
 31
0.0
  0
LINE
  8
0
 62
     0
 10
-30.3389
 20
28.2222
 30
0.0
 11
-36.3361
 21
28.2222
 31
0.0
  0
LINE
  8
0
 62
     0
 10
-36.3361
 20
27.5167
 30
0.0
 11
-31.0444
 21
27.5167
 31
0.0
  0
LINE
  8
0
 62
     0
 10
-31.0444
 20
27.5167
 30
0.0
 11
-31.0444
 21
27.1639
 31
0.0
  0
LINE
  8
0
 62
     0
 10
-31.0444
 20
27.1639
 30
0.0
 11
-31.0444
 21
26.8111
 31
0.0
  0
LINE
  8
0
 62
     0
 10
-31.0444
 20
26.8111
 30
0.0
 11
-30.3389
 21
26.8111
 31
0.0
  0
LINE
  8
0
 62
     0
 10
-30.3389
 20
26.8111
 30
0.0
 11
-29.6333
 21
26.8111
 31
0.0
  0
LINE
  8
0
 62
     0
 10
-29.6333
 20
26.8111
 30
0.0
 11
-29.6333
 21
25.4
 31
0.0
  0
LINE
  8
0
 62
     0
 10
-29.6333
 20
25.4
 30
0.0
 11
-29.6333
 21
23.9889
 31
0.0
  0
LINE
  8
0
 62
     0
 10
-29.6333
 20
23.9889
 30
0.0
 11
-29.2806
 21
23.9889
 31
0.0
  0
LINE
  8
0
 62
     0
 10
-29.2806
 20
23.9889
 30
0.0
 11
-28.9278
 21
23.9889
 31
0.0
  0
LINE
  8
0
 62
     0
 10
-28.9278
 20
23.9889
 30
0.0
 11
-28.9278
 21
25.4
 31
0.0
  0
LINE
  8
0
 62
     0
 10
-28.9278
 20
25.4
 30
0.0
 11
-28.9278
 21
26.8111
 31
0.0
  0
LINE
  8
0
 62
     0
 10
-28.9278
 20
26.8111
 30
0.0
 11
-26.8111
 21
26.8111
 31
0.0
  0
LINE
  8
0
 62
     0
 10
-26.8111
 20
26.8111
 30
0.0
 11
-24.6944
 21
26.8111
 31
0.0
  0
LINE
  8
0
 62
     0
 10
-24.6944
 20
26.8111
 30
0.0
 11
-24.6944
 21
27.1639
 31
0.0
  0
LINE
  8
0
 62
     0
 10
-24.6944
 20
27.1639
 30
0.0
 11
-24.6944
 21
27.5167
 31
0.0
  0
LINE
  8
0
 62
     0
 10
-24.6944
 20
27.5167
 30
0.0
 11
-22.9306
 21
27.5167
 31
0.0
  0
LINE
  8
0
 62
     0
 10
-22.9306
 20
27.5167
 30
0.0
 11
-21.1667
 21
27.5167
 31
0.0
  0
LINE
  8
0
 62
     0
 10
-21.1667
 20
27.5167
 30
0.0
 11
-21.1667
 21
23.6361
 31
0.0
  0
LINE
  8
0
 62
     0
 10
-21.1667
 20
23.6361
 30
0.0
 11
-21.1667
 21
19.7556
 31
0.0
  0
LINE
  8
0
 62
     0
 10
-21.1667
 20
19.7556
 30
0.0
 11
-20.8139
 21
19.7556
 31
0.0
  0
LINE
  8
0
 62
     0
 10
-20.8139
 20
19.7556
 30
0.0
 11
-20.4611
 21
19.7556
 31
0.0
  0
LINE
  8
0
 62
     0
 10
-20.4611
 20
19.7556
 30
0.0
 11
-20.4611
 21
16.9333
 31
0.0
  0
LINE
  8
0
 62
     0
 10
-20.4611
 20
16.9333
 30
0.0
 11
-20.4611
 21
14.1111
 31
0.0
  0
LINE
  8
0
 62
     0
 10
-20.4611
 20
14.1111
 30
0.0
 11
-20.8139
 21
14.1111
 31
0.0
  0
LINE
  8
0
 62
     0
 10
-20.8139
 20
14.1111
 30
0.0
 11
-21.1667
 21
14.1111
 31
0.0
  0
LINE
  8
0
 62
     0
 10
-21.1667
 20
14.1111
 30
0.0
 11
-21.1667
 21
11.9944
 31
0.0
  0
LINE
  8
0
 62
     0
 10
-21.1667
 20
11.9944
 30
0.0
 11
-21.1667
 21
9.87778
 31
0.0
  0
LINE
  8
0
 62
     0
 10
-21.1667
 20
9.87778
 30
0.0
 11
-20.8139
 21
9.87778
 31
0.0
  0
LINE
  8
0
 62
     0
 10
-20.8139
 20
9.87778
 30
0.0
 11
-20.4611
 21
9.87778
 31
0.0
  0
LINE
  8
0
 62
     0
 10
-20.4611
 20
9.87778
 30
0.0
 11
-20.4611
 21
11.6417
 31
0.0
  0
LINE
  8
0
 62
     0
 10
-20.4611
 20
11.6417
 30
0.0
 11
-20.4611
 21
13.4056
 31
0.0
  0
LINE
  8
0
 62
     0
 10
-20.4611
 20
13.4056
 30
0.0
 11
-20.1083
 21
13.4056
 31
0.0
  0
LINE
  8
0
 62
     0
 10
-20.1083
 20
13.4056
 30
0.0
 11
-19.7556
 21
13.4056
 31
0.0
  0
LINE
  8
0
 62
     0
 10
-19.7556
 20
13.4056
 30
0.0
 11
-19.7556
 21
16.9333
 31
0.0
  0
LINE
  8
0
 62
     0
 10
-19.7556
 20
16.9333
 30
0.0
 11
-19.7556
 21
20.4611
 31
0.0
  0
LINE
  8
0
 62
     0
 10
-19.7556
 20
20.4611
 30
0.0
 11
-20.1083
 21
20.4611
 31
0.0
  0
LINE
  8
0
 62
     0
 10
-20.1083
 20
20.4611
 30
0.0
 11
-20.4611
 21
20.4611
 31
0.0
  0
LINE
  8
0
 62
     0
 10
-20.4611
 20
20.4611
 30
0.0
 11
-20.4611
 21
23.6361
 31
0.0
  0
LINE
  8
0
 62
     0
 10
-20.4611
 20
23.6361
 30
0.0
 11
-20.4611
 21
26.8111
 31
0.0
  0
LINE
  8
0
 62
     0
 10
-20.4611
 20
26.8111
 30
0.0
 11
-13.0528
 21
26.8111
 31
0.0
  0
LINE
  8
0
 62
     0
 10
-13.0528
 20
26.8111
 30
0.0
 11
-5.64444
 21
26.8111
 31
0.0
  0
LINE
  8
0
 62
     0
 10
-5.64444
 20
26.8111
 30
0.0
 11
-5.64444
 21
25.0472
 31
0.0
  0
LINE
  8
0
 62
     0
 10
-5.64444
 20
25.0472
 30
0.0
 11
-5.64444
 21
23.2833
 31
0.0
  0
LINE
  8
0
 62
     0
 10
-5.64444
 20
23.2833
 30
0.0
 11
-5.29167
 21
23.2833
 31
0.0
  0
LINE
  8
0
 62
     0
 10
-5.29167
 20
23.2833
 30
0.0
 11
-4.93889
 21
23.2833
 31
0.0
  0
LINE
  8
0
 62
     0
 10
-4.93889
 20
23.2833
 30
0.0
 11
-4.93889
 21
24.8708
 31
0.0
  0
LINE
  8
0
 62
     0
 10
-4.93889
 20
24.8708
 30
0.0
 11
-4.93889
 21
26.4583
 31
0.0
  0
LINE
  8
0
 62
     0
 10
-4.93889
 20
26.4583
 30
0.0
 11
-4.40972
 21
26.9875
 31
0.0
  0
LINE
  8
0
 62
     0
 10
-4.40972
 20
26.9875
 30
0.0
 11
-3.88056
 21
27.5167
 31
0.0
  0
LINE
  8
0
 62
     0
 10
-3.88056
 20
27.5167
 30
0.0
 11
6.52639
 21
27.5167
 31
0.0
  0
LINE
  8
0
 62
     0
 10
6.52639
 20
27.5167
 30
0.0
 11
16.9333
 21
27.5167
 31
0.0
  0
LINE
  8
0
 62
     0
 10
16.9333
 20
27.5167
 30
0.0
 11
16.9333
 21
21.1667
 31
0.0
  0
LINE
  8
0
 62
     0
 10
16.9333
 20
21.1667
 30
0.0
 11
16.9333
 21
14.8167
 31
0.0
  0
LINE
  8
0
 62
     0
 10
16.9333
 20
14.8167
 30
0.0
 11
5.99722
 21
14.8167
 31
0.0
  0
LINE
  8
0
 62
     0
 10
5.99722
 20
14.8167
 30
0.0
 11
-4.93889
 21
14.8167
 31
0.0
  0
LINE
  8
0
 62
     0
 10
-4.93889
 20
14.8167
 30
0.0
 11
-4.93889
 21
16.5806
 31
0.0
  0
LINE
  8
0
 62
     0
 10
-4.93889
 20
16.5806
 30
0.0
 11
-4.93889
 21
18.3444
 31
0.0
  0
LINE
  8
0
 62
     0
 10
-4.93889
 20
18.3444
 30
0.0
 11
-5.29167
 21
18.3444
 31
0.0
  0
LINE
  8
0
 62
     0
 10
-5.29167
 20
18.3444
 30
0.0
 11
-5.64444
 21
18.3444
 31
0.0
  0
LINE
  8
0
 62
     0
 10
-5.64444
 20
18.3444
 30
0.0
 11
-5.64444
 21
15.1694
 31
0.0
  0
LINE
  8
0
 62
     0
 10
-5.64444
 20
15.1694
 30
0.0
 11
-5.64444
 21
11.9944
 31
0.0
  0
LINE
  8
0
 62
     0
 10
-5.64444
 20
11.9944
 30
0.0
 11
-5.29167
 21
11.9944
 31
0.0
  0
LINE
  8
0
 62
     0
 10
-5.29167
 20
11.9944
 30
0.0
 11
-4.93889
 21
11.9944
 31
0.0
  0
LINE
  8
0
 62
     0
 10
-4.93889
 20
11.9944
 30
0.0
 11
-4.93889
 21
13.0528
 31
0.0
  0
LINE
  8
0
 62
     0
 10
-4.93889
 20
13.0528
 30
0.0
 11
-4.93889
 21
14.1111
 31
0.0
  0
LINE
  8
0
 62
     0
 10
-4.93889
 20
14.1111
 30
0.0
 11
5.99722
 21
14.1111
 31
0.0
  0
LINE
  8
0
 62
     0
 10
5.99722
 20
14.1111
 30
0.0
 11
16.9333
 21
14.1111
 31
0.0
  0
LINE
  8
0
 62
     0
 10
16.9333
 20
14.1111
 30
0.0
 11
16.9333
 21
9.87778
 31
0.0
  0
LINE
  8
0
 62
     0
 10
16.9333
 20
9.87778
 30
0.0
 11
16.9333
 21
5.64444
 31
0.0
  0
LINE
  8
0
 62
     0
 10
16.9333
 20
5.64444
 30
0.0
 11
5.99722
 21
5.64444
 31
0.0
  0
LINE
  8
0
 62
     0
 10
5.99722
 20
5.64444
 30
0.0
 11
-4.93889
 21
5.64444
 31
0.0
  0
LINE
  8
0
 62
     0
 10
-4.93889
 20
5.64444
 30
0.0
 11
-4.93889
 21
7.05556
 31
0.0
  0
LINE
  8
0
 62
     0
 10
-4.93889
 20
7.05556
 30
0.0
 11
-4.93889
 21
8.46667
 31
0.0
  0
LINE
  8
0
 62
     0
 10
-4.93889
 20
8.46667
 30
0.0
 11
-5.29167
 21
8.46667
 31
0.0
  0
LINE
  8
0
 62
     0
 10
-5.29167
 20
8.46667
 30
0.0
 11
-5.64444
 21
8.46667
 31
0.0
  0
LINE
  8
0
 62
     0
 10
-5.64444
 20
8.46667
 30
0.0
 11
-5.64444
 21
7.05556
 31
0.0
  0
LINE
  8
0
 62
     0
 10
-5.64444
 20
7.05556
 30
0.0
 11
-5.64444
 21
5.64444
 31
0.0
  0
LINE
  8
0
 62
     0
 10
-5.64444
 20
5.64444
 30
0.0
 11
-9.17222
 21
5.64444
 31
0.0
  0
LINE
  8
0
 62
     0
 10
-9.17222
 20
5.64444
 30
0.0
 11
-12.7
 21
5.64444
 31
0.0
  0
LINE
  8
0
 62
     0
 10
-12.7
 20
5.64444
 30
0.0
 11
-12.7
 21
5.29167
 31
0.0
  0
LINE
  8
0
 62
     0
 10
-12.7
 20
5.29167
 30
0.0
 11
-12.7
 21
4.93889
 31
0.0
  0
LINE
  8
0
 62
     0
 10
-12.7
 20
4.93889
 30
0.0
 11
2.46944
 21
4.93889
 31
0.0
  0
LINE
  8
0
 62
     0
 10
2.46944
 20
4.93889
 30
0.0
 11
17.6389
 21
4.93889
 31
0.0
  0
LINE
  8
0
 62
     0
 10
17.6389
 20
4.93889
 30
0.0
 11
17.6389
 21
14.8167
 31
0.0
  0
LINE
  8
0
 62
     0
 10
17.6389
 20
14.8167
 30
0.0
 11
17.6389
 21
24.6944
 31
0.0
  0
LINE
  8
0
 62
     0
 10
17.6389
 20
24.6944
 30
0.0
 11
23.2833
 21
24.6944
 31
0.0
  0
LINE
  8
0
 62
     0
 10
23.2833
 20
24.6944
 30
0.0
 11
28.9278
 21
24.6944
 31
0.0
  0
LINE
  8
0
 62
     0
 10
28.9278
 20
24.6944
 30
0.0
 11
28.9278
 21
23.6361
 31
0.0
  0
LINE
  8
0
 62
     0
 10
28.9278
 20
23.6361
 30
0.0
 11
28.9278
 21
22.5778
 31
0.0
  0
LINE
  8
0
 62
     0
 10
28.9278
 20
22.5778
 30
0.0
 11
29.2806
 21
22.5778
 31
0.0
  0
LINE
  8
0
 62
     0
 10
29.2806
 20
22.5778
 30
0.0
 11
29.6333
 21
22.5778
 31
0.0
  0
LINE
  8
0
 62
     0
 10
29.6333
 20
22.5778
 30
0.0
 11
29.6333
 21
25.0472
 31
0.0
  0
LINE
  8
0
 62
     0
 10
29.6333
 20
25.0472
 30
0.0
 11
29.6333
 21
27.5167
 31
0.0
  0
LINE
  8
0
 62
     0
 10
29.6333
 20
27.5167
 30
0.0
 11
35.6306
 21
27.5167
 31
0.0
  0
LINE
  8
0
 62
     0
 10
35.6306
 20
27.5167
 30
0.0
 11
41.6278
 21
27.5167
 31
0.0
  0
LINE
  8
0
 62
     0
 10
41.6278
 20
27.5167
 30
0.0
 11
41.6278
 21
16.9333
 31
0.0
  0
LINE
  8
0
 62
     0
 10
41.6278
 20
16.9333
 30
0.0
 11
41.6278
 21
6.35
 31
0.0
  0
LINE
  8
0
 62
     0
 10
41.6278
 20
6.35
 30
0.0
 11
40.2167
 21
6.35
 31
0.0
  0
LINE
  8
0
 62
     0
 10
40.2167
 20
6.35
 30
0.0
 11
38.8056
 21
6.35
 31
0.0
  0
LINE
  8
0
 62
     0
 10
38.8056
 20
6.35
 30
0.0
 11
38.8056
 21
5.99722
 31
0.0
  0
LINE
  8
0
 62
     0
 10
38.8056
 20
5.99722
 30
0.0
 11
38.8056
 21
5.64444
 31
0.0
  0
LINE
  8
0
 62
     0
 10
38.8056
 20
5.64444
 30
0.0
 11
39.8639
 21
5.64444
 31
0.0
  0
LINE
  8
0
 62
     0
 10
39.8639
 20
5.64444
 30
0.0
 11
40.9222
 21
5.64444
 31
0.0
  0
LINE
  8
0
 62
     0
 10
40.9222
 20
5.64444
 30
0.0
 11
40.9222
 21
-5.99722
 31
0.0
  0
LINE
  8
0
 62
     0
 10
40.9222
 20
-5.99722
 30
0.0
 11
40.9222
 21
-17.6389
 31
0.0
  0
LINE
  8
0
 62
     0
 10
40.9222
 20
-17.6389
 30
0.0
 11
41.275
 21
-17.6389
 31
0.0
  0
LINE
  8
0
 62
     0
 10
41.275
 20
-17.6389
 30
0.0
 11
41.6278
 21
-17.6389
 31
0.0
  0
LINE
  8
0
 62
     0
 10
41.6278
 20
-17.6389
 30
0.0
 11
41.6278
 21
-22.225
 31
0.0
  0
LINE
  8
0
 62
     0
 10
41.6278
 20
-22.225
 30
0.0
 11
41.6278
 21
-26.8111
 31
0.0
  0
LINE
  8
0
 62
     0
 10
41.6278
 20
-26.8111
 30
0.0
 11
40.5694
 21
-26.8111
 31
0.0
  0
LINE
  8
0
 62
     0
 10
40.5694
 20
-26.8111
 30
0.0
 11
39.5111
 21
-26.8111
 31
0.0
  0
LINE
  8
0
 62
     0
 10
39.5111
 20
-26.8111
 30
0.0
 11
39.5111
 21
-27.1639
 31
0.0
  0
LINE
  8
0
 62
     0
 10
39.5111
 20
-27.1639
 30
0.0
 11
39.5111
 21
-27.5167
 31
0.0
  0
LINE
  8
0
 62
     0
 10
39.5111
 20
-27.5167
 30
0.0
 11
31.0444
 21
-27.5167
 31
0.0
  0
LINE
  8
0
 62
     0
 10
31.0444
 20
-27.5167
 30
0.0
 11
22.5778
 21
-27.5167
 31
0.0
  0
LINE
  8
0
 62
     0
 10
22.5778
 20
-27.5167
 30
0.0
 11
22.5778
 21
-24.3417
 31
0.0
  0
LINE
  8
0
 62
     0
 10
22.5778
 20
-24.3417
 30
0.0
 11
22.5778
 21
-21.1667
 31
0.0
  0
LINE
  8
0
 62
     0
 10
22.5778
 20
-21.1667
 30
0.0
 11
22.225
 21
-21.1667
 31
0.0
  0
LINE
  8
0
 62
     0
 10
22.225
 20
-21.1667
 30
0.0
 11
21.8722
 21
-21.1667
 31
0.0
  0
LINE
  8
0
 62
     0
 10
21.8722
 20
-21.1667
 30
0.0
 11
21.8722
 21
-24.3417
 31
0.0
  0
LINE
  8
0
 62
     0
 10
21.8722
 20
-24.3417
 30
0.0
 11
21.8722
 21
-27.5167
 31
0.0
  0
LINE
  8
0
 62
     0
 10
21.8722
 20
-27.5167
 30
0.0
 11
17.2861
 21
-27.5167
 31
0.0
  0
LINE
  8
0
 62
     0
 10
17.2861
 20
-27.5167
 30
0.0
 11
12.7
 21
-27.5167
 31
0.0
  0
LINE
  8
0
 62
     0
 10
12.7
 20
-27.5167
 30
0.0
 11
12.7
 21
-27.1639
 31
0.0
  0
LINE
  8
0
 62
     0
 10
12.7
 20
-27.1639
 30
0.0
 11
12.7
 21
-26.8111
 31
0.0
  0
LINE
  8
0
 62
     0
 10
12.7
 20
-26.8111
 30
0.0
 11
8.46667
 21
-26.8111
 31
0.0
  0
LINE
  8
0
 62
     0
 10
8.46667
 20
-26.8111
 30
0.0
 11
4.23333
 21
-26.8111
 31
0.0
  0
LINE
  8
0
 62
     0
 10
4.23333
 20
-26.8111
 30
0.0
 11
4.05694
 21
-26.2819
 31
0.0
  0
LINE
  8
0
 62
     0
 10
4.05694
 20
-26.2819
 30
0.0
 11
3.88056
 21
-25.7528
 31
0.0
  0
LINE
  8
0
 62
     0
 10
3.88056
 20
-25.7528
 30
0.0
 11
3.175
 21
-26.6347
 31
0.0
  0
LINE
  8
0
 62
     0
 10
3.175
 20
-26.6347
 30
0.0
 11
2.46944
 21
-27.5167
 31
0.0
  0
LINE
  8
0
 62
     0
 10
2.46944
 20
-27.5167
 30
0.0
 11
-4.05694
 21
-27.5167
 31
0.0
  0
LINE
  8
0
 62
     0
 10
-4.05694
 20
-27.5167
 30
0.0
 11
-10.5833
 21
-27.5167
 31
0.0
  0
LINE
  8
0
 62
     0
 10
-10.5833
 20
-27.5167
 30
0.0
 11
-10.5833
 21
-21.8722
 31
0.0
  0
LINE
  8
0
 62
     0
 10
-10.5833
 20
-21.8722
 30
0.0
 11
-10.5833
 21
-16.2278
 31
0.0
  0
LINE
  8
0
 62
     0
 10
-10.5833
 20
-16.2278
 30
0.0
 11
-3.52778
 21
-16.2278
 31
0.0
  0
LINE
  8
0
 62
     0
 10
-3.52778
 20
-16.2278
 30
0.0
 11
3.52778
 21
-16.2278
 31
0.0
  0
LINE
  8
0
 62
     0
 10
3.52778
 20
-16.2278
 30
0.0
 11
3.52778
 21
-19.7556
 31
0.0
  0
LINE
  8
0
 62
     0
 10
3.52778
 20
-19.7556
 30
0.0
 11
3.52778
 21
-23.2833
 31
0.0
  0
LINE
  8
0
 62
     0
 10
3.52778
 20
-23.2833
 30
0.0
 11
3.88056
 21
-23.2833
 31
0.0
  0
LINE
  8
0
 62
     0
 10
3.88056
 20
-23.2833
 30
0.0
 11
4.23333
 21
-23.2833
 31
0.0
  0
LINE
  8
0
 62
     0
 10
4.23333
 20
-23.2833
 30
0.0
 11
4.23333
 21
-19.7556
 31
0.0
  0
LINE
  8
0
 62
     0
 10
4.23333
 20
-19.7556
 30
0.0
 11
4.23333
 21
-16.2278
 31
0.0
  0
LINE
  8
0
 62
     0
 10
4.23333
 20
-16.2278
 30
0.0
 11
13.0528
 21
-16.2278
 31
0.0
  0
LINE
  8
0
 62
     0
 10
13.0528
 20
-16.2278
 30
0.0
 11
21.8722
 21
-16.2278
 31
0.0
  0
LINE
  8
0
 62
     0
 10
21.8722
 20
-16.2278
 30
0.0
 11
21.8722
 21
-17.2861
 31
0.0
  0
LINE
  8
0
 62
     0
 10
21.8722
 20
-17.2861
 30
0.0
 11
21.8722
 21
-18.3444
 31
0.0
  0
LINE
  8
0
 62
     0
 10
21.8722
 20
-18.3444
 30
0.0
 11
22.225
 21
-18.3444
 31
0.0
  0
LINE
  8
0
 62
     0
 10
22.225
 20
-18.3444
 30
0.0
 11
22.5778
 21
-18.3444
 31
0.0
  0
LINE
  8
0
 62
     0
 10
22.5778
 20
-18.3444
 30
0.0
 11
22.5778
 21
-17.2861
 31
0.0
  0
LINE
  8
0
 62
     0
 10
22.5778
 20
-17.2861
 30
0.0
 11
22.5778
 21
-16.2278
 31
0.0
  0
LINE
  8
0
 62
     0
 10
22.5778
 20
-16.2278
 30
0.0
 11
25.0472
 21
-16.2278
 31
0.0
  0
LINE
  8
0
 62
     0
 10
25.0472
 20
-16.2278
 30
0.0
 11
27.5167
 21
-16.2278
 31
0.0
  0
LINE
  8
0
 62
     0
 10
27.5167
 20
-16.2278
 30
0.0
 11
27.5167
 21
-15.875
 31
0.0
  0
LINE
  8
0
 62
     0
 10
27.5167
 20
-15.875
 30
0.0
 11
27.5167
 21
-15.5222
 31
0.0
  0
LINE
  8
0
 62
     0
 10
27.5167
 20
-15.5222
 30
0.0
 11
8.46667
 21
-15.5222
 31
0.0
  0
LINE
  8
0
 62
     0
 10
8.46667
 20
-15.5222
 30
0.0
 11
-10.5833
 21
-15.5222
 31
0.0
  0
LINE
  8
0
 62
     0
 10
-10.5833
 20
-15.5222
 30
0.0
 11
-10.5833
 21
-10.2306
 31
0.0
  0
LINE
  8
0
 62
     0
 10
-10.5833
 20
-10.2306
 30
0.0
 11
-10.5833
 21
-4.93889
 31
0.0
  0
LINE
  8
0
 62
     0
 10
-10.5833
 20
-4.93889
 30
0.0
 11
2.46944
 21
-4.93889
 31
0.0
  0
LINE
  8
0
 62
     0
 10
2.46944
 20
-4.93889
 30
0.0
 11
15.5222
 21
-4.93889
 31
0.0
  0
LINE
  8
0
 62
     0
 10
15.5222
 20
-4.93889
 30
0.0
 11
15.5222
 21
-3.88056
 31
0.0
  0
LINE
  8
0
 62
     0
 10
15.5222
 20
-3.88056
 30
0.0
 11
15.5222
 21
-2.82222
 31
0.0
  0
LINE
  8
0
 62
     0
 10
15.5222
 20
-2.82222
 30
0.0
 11
19.4028
 21
-2.82222
 31
0.0
  0
LINE
  8
0
 62
     0
 10
19.4028
 20
-2.82222
 30
0.0
 11
23.2833
 21
-2.82222
 31
0.0
  0
LINE
  8
0
 62
     0
 10
23.2833
 20
-2.82222
 30
0.0
 11
23.2833
 21
-2.46944
 31
0.0
  0
LINE
  8
0
 62
     0
 10
23.2833
 20
-2.46944
 30
0.0
 11
23.2833
 21
-2.11667
 31
0.0
  0
LINE
  8
0
 62
     0
 10
23.2833
 20
-2.11667
 30
0.0
 11
23.9889
 21
-2.11667
 31
0.0
  0
LINE
  8
0
 62
     0
 10
23.9889
 20
-2.11667
 30
0.0
 11
24.6944
 21
-2.11667
 31
0.0
  0
LINE
  8
0
 62
     0
 10
24.6944
 20
-2.11667
 30
0.0
 11
24.6944
 21
-5.99722
 31
0.0
  0
LINE
  8
0
 62
     0
 10
24.6944
 20
-5.99722
 30
0.0
 11
24.6944
 21
-9.87778
 31
0.0
  0
LINE
  8
0
 62
     0
 10
24.6944
 20
-9.87778
 30
0.0
 11
25.0472
 21
-9.87778
 31
0.0
  0
LINE
  8
0
 62
     0
 10
25.0472
 20
-9.87778
 30
0.0
 11
25.4
 21
-9.87778
 31
0.0
  0
LINE
  8
0
 62
     0
 10
25.4
 20
-9.87778
 30
0.0
 11
25.4
 21
-5.64444
 31
0.0
  0
LINE
  8
0
 62
     0
 10
25.4
 20
-5.64444
 30
0.0
 11
25.4
 21
-1.41111
 31
0.0
  0
LINE
  8
0
 62
     0
 10
25.4
 20
-1.41111
 30
0.0
 11
23.9889
 21
-1.41111
 31
0.0
  0
LINE
  8
0
 62
     0
 10
23.9889
 20
-1.41111
 30
0.0
 11
22.5778
 21
-1.41111
 31
0.0
  0
LINE
  8
0
 62
     0
 10
22.5778
 20
-1.41111
 30
0.0
 11
22.5778
 21
-1.76389
 31
0.0
  0
LINE
  8
0
 62
     0
 10
22.5778
 20
-1.76389
 30
0.0
 11
22.5778
 21
-2.11667
 31
0.0
  0
LINE
  8
0
 62
     0
 10
22.5778
 20
-2.11667
 30
0.0
 11
18.6972
 21
-2.11667
 31
0.0
  0
LINE
  8
0
 62
     0
 10
18.6972
 20
-2.11667
 30
0.0
 11
14.8167
 21
-2.11667
 31
0.0
  0
LINE
  8
0
 62
     0
 10
14.8167
 20
-2.11667
 30
0.0
 11
14.8167
 21
-3.175
 31
0.0
  0
LINE
  8
0
 62
     0
 10
14.8167
 20
-3.175
 30
0.0
 11
14.8167
 21
-4.23333
 31
0.0
  0
LINE
  8
0
 62
     0
 10
14.8167
 20
-4.23333
 30
0.0
 11
0
 21
-4.23333
 31
0.0
  0
LINE
  8
0
 62
     0
 10
0
 20
-4.23333
 30
0.0
 11
-14.8167
 21
-4.23333
 31
0.0
  0
LINE
  8
0
 62
     0
 10
-14.8167
 20
-4.23333
 30
0.0
 11
-14.8167
 21
-4.58611
 31
0.0
  0
LINE
  8
0
 62
     0
 10
-14.8167
 20
-4.58611
 30
0.0
 11
-14.8167
 21
-4.93889
 31
0.0
  0
LINE
  8
0
 62
     0
 10
-14.8167
 20
-4.93889
 30
0.0
 11
-13.0528
 21
-4.93889
 31
0.0
  0
LINE
  8
0
 62
     0
 10
-13.0528
 20
-4.93889
 30
0.0
 11
-11.2889
 21
-4.93889
 31
0.0
  0
LINE
  8
0
 62
     0
 10
-11.2889
 20
-4.93889
 30
0.0
 11
-11.2889
 21
-16.2278
 31
0.0
  0
LINE
  8
0
 62
     0
 10
-11.2889
 20
-16.2278
 30
0.0
 11
-11.2889
 21
-27.5167
 31
0.0
  0
LINE
  8
0
 62
     0
 10
-11.2889
 20
-27.5167
 30
0.0
 11
-11.9944
 21
-27.5167
 31
0.0
  0
LINE
  8
0
 62
     0
 10
-11.9944
 20
-27.5167
 30
0.0
 11
-12.7
 21
-27.5167
 31
0.0
  0
LINE
  8
0
 62
     0
 10
-12.7
 20
-27.5167
 30
0.0
 11
-12.7
 21
-27.1639
 31
0.0
  0
LINE
  8
0
 62
     0
 10
-12.7
 20
-27.1639
 30
0.0
 11
-12.7
 21
-26.8111
 31
0.0
  0
LINE
  8
0
 62
     0
 10
-12.7
 20
-26.8111
 30
0.0
 11
-18.3444
 21
-26.8111
 31
0.0
  0
LINE
  8
0
 62
     0
 10
-18.3444
 20
-26.8111
 30
0.0
 11
-23.9889
 21
-26.8111
 31
0.0
  0
LINE
  8
0
 62
     0
 10
-23.9889
 20
-26.8111
 30
0.0
 11
-23.9889
 21
-27.1639
 31
0.0
  0
LINE
  8
0
 62
     0
 10
-23.9889
 20
-27.1639
 30
0.0
 11
-23.9889
 21
-27.5167
 31
0.0
  0
LINE
  8
0
 62
     0
 10
-23.9889
 20
-27.5167
 30
0.0
 11
-26.1056
 21
-27.5167
 31
0.0
  0
LINE
  8
0
 62
     0
 10
-26.1056
 20
-27.5167
 30
0.0
 11
-28.2222
 21
-27.5167
 31
0.0
  0
LINE
  8
0
 62
     0
 10
-28.2222
 20
-27.5167
 30
0.0
 11
-28.2222
 21
-25.4
 31
0.0
  0
LINE
  8
0
 62
     0
 10
-28.2222
 20
-25.4
 30
0.0
 11
-28.2222
 21
-23.2833
 31
0.0
  0
LINE
  8
0
 62
     0
 10
-28.2222
 20
-23.2833
 30
0.0
 11
-28.575
 21
-23.2833
 31
0.0
  0
LINE
  8
0
 62
     0
 10
-28.575
 20
-23.2833
 30
0.0
 11
-28.9278
 21
-23.2833
 31
0.0
  0
LINE
  8
0
 62
     0
 10
-28.9278
 20
-23.2833
 30
0.0
 11
-28.9278
 21
-14.1111
 31
0.0
  0
LINE
  8
0
 62
     0
 10
-28.9278
 20
-14.1111
 30
0.0
 11
-28.9278
 21
-4.93889
 31
0.0
  0
LINE
  8
0
 62
     0
 10
-28.9278
 20
-4.93889
 30
0.0
 11
-25.0472
 21
-4.93889
 31
0.0
  0
LINE
  8
0
 62
     0
 10
-25.0472
 20
-4.93889
 30
0.0
 11
-21.1667
 21
-4.93889
 31
0.0
  0
LINE
  8
0
 62
     0
 10
-21.1667
 20
-4.93889
 30
0.0
 11
-21.1667
 21
-4.58611
 31
0.0
  0
LINE
  8
0
 62
     0
 10
-21.1667
 20
-4.58611
 30
0.0
 11
-21.1667
 21
-4.23333
 31
0.0
  0
LINE
  8
0
 62
     0
 10
-21.1667
 20
-4.23333
 30
0.0
 11
-25.4
 21
-4.23333
 31
0.0
  0
LINE
  8
0
 62
     0
 10
-25.4
 20
-4.23333
 30
0.0
 11
-29.6333
 21
-4.23333
 31
0.0
  0
LINE
  8
0
 62
     0
 10
-29.6333
 20
-4.23333
 30
0.0
 11
-29.6333
 21
-14.1111
 31
0.0
  0
LINE
  8
0
 62
     0
 10
-29.6333
 20
-14.1111
 30
0.0
 11
-29.6333
 21
-23.9889
 31
0.0
  0
LINE
  8
0
 62
     0
 10
-29.6333
 20
-23.9889
 30
0.0
 11
-29.2806
 21
-23.9889
 31
0.0
  0
LINE
  8
0
 62
     0
 10
-29.2806
 20
-23.9889
 30
0.0
 11
-28.9278
 21
-23.9889
 31
0.0
  0
LINE
  8
0
 62
     0
 10
-28.9278
 20
-23.9889
 30
0.0
 11
-28.9278
 21
-25.7528
 31
0.0
  0
LINE
  8
0
 62
     0
 10
-28.9278
 20
-25.7528
 30
0.0
 11
-28.9278
 21
-27.5167
 31
0.0
  0
LINE
  8
0
 62
     0
 10
-28.9278
 20
-27.5167
 30
0.0
 11
-35.2778
 21
-27.5167
 31
0.0
  0
LINE
  8
0
 62
     0
 10
-35.2778
 20
-27.5167
 30
0.0
 11
-41.6278
 21
-27.5167
 31
0.0
  0
LINE
  8
0
 62
     0
 10
-41.6278
 20
-27.5167
 30
0.0
 11
-41.6278
 21
-16.9333
 31
0.0
  0
LINE
  8
0
 62
     0
 10
-41.6278
 20
-16.9333
 30
0.0
 11
-41.6278
 21
-6.35
 31
0.0
  0
LINE
  8
0
 62
     0
 10
-41.6278
 20
-6.35
 30
0.0
 11
-41.275
 21
-6.35
 31
0.0
  0
LINE
  8
0
 62
     0
 10
-41.275
 20
-6.35
 30
0.0
 11
-40.9222
 21
-6.35
 31
0.0
  0
LINE
  8
0
 62
     0
 10
-40.9222
 20
-6.35
 30
0.0
 11
-40.9222
 21
-1.41111
 31
0.0
  0
LINE
  8
0
 62
     0
 10
-40.9222
 20
-1.41111
 30
0.0
 11
-40.9222
 21
3.52778
 31
0.0
  0
LINE
  8
0
 62
     0
 10
-40.9222
 20
3.52778
 30
0.0
 11
-35.9833
 21
3.52778
 31
0.0
  0
LINE
  8
0
 62
     0
 10
-35.9833
 20
3.52778
 30
0.0
 11
-31.0444
 21
3.52778
 31
0.0
  0
LINE
  8
0
 62
     0
 10
-31.0444
 20
3.52778
 30
0.0
 11
-31.0444
 21
3.88056
 31
0.0
  0
LINE
  8
0
 62
     0
 10
-31.0444
 20
3.88056
 30
0.0
 11
-31.0444
 21
4.23333
 31
0.0
  0
LINE
  8
0
 62
     0
 10
-31.0444
 20
4.23333
 30
0.0
 11
-27.1639
 21
4.23333
 31
0.0
  0
LINE
  8
0
 62
     0
 10
-27.1639
 20
4.23333
 30
0.0
 11
-23.2833
 21
4.23333
 31
0.0
  0
LINE
  8
0
 62
     0
 10
-23.2833
 20
4.23333
 30
0.0
 11
-23.2833
 21
4.58611
 31
0.0
  0
LINE
  8
0
 62
     0
 10
-23.2833
 20
4.58611
 30
0.0
 11
-23.2833
 21
4.93889
 31
0.0
  0
LINE
  8
0
 62
     0
 10
-23.2833
 20
4.93889
 30
0.0
 11
-27.5167
 21
4.93889
 31
0.0
  0
LINE
  8
0
 62
     0
 10
-27.5167
 20
4.93889
 30
0.0
 11
-31.75
 21
4.93889
 31
0.0
  0
LINE
  8
0
 62
     0
 10
-31.75
 20
4.93889
 30
0.0
 11
-31.75
 21
4.58611
 31
0.0
  0
LINE
  8
0
 62
     0
 10
-31.75
 20
4.58611
 30
0.0
 11
-31.75
 21
4.23333
 31
0.0
  0
LINE
  8
0
 62
     0
 10
-31.75
 20
4.23333
 30
0.0
 11
-36.6889
 21
4.23333
 31
0.0
  0
LINE
  8
0
 62
     0
 10
-36.6889
 20
4.23333
 30
0.0
 11
-41.6278
 21
4.23333
 31
0.0
  0
LINE
  8
0
 62
     0
 10
-41.6278
 20
4.23333
 30
0.0
 11
-41.6278
 21
10.5833
 31
0.0
  0
LINE
  8
0
 62
     0
 10
-41.6278
 20
10.5833
 30
0.0
 11
-41.6278
 21
16.9333
 31
0.0
  0
LINE
  8
0
 62
     0
 10
-41.6278
 20
16.9333
 30
0.0
 11
-35.2778
 21
16.9333
 31
0.0
  0
LINE
  8
0
 62
     0
 10
-35.2778
 20
16.9333
 30
0.0
 11
-28.9278
 21
16.9333
 31
0.0
  0
LINE
  8
0
 62
     0
 10
-28.9278
 20
16.9333
 30
0.0
 11
-28.9278
 21
17.9917
 31
0.0
  0
LINE
  8
0
 62
     0
 10
-28.9278
 20
17.9917
 30
0.0
 11
-28.9278
 21
19.05
 31
0.0
  0
LINE
  8
0
 62
     0
 10
-28.9278
 20
19.05
 30
0.0
 11
-29.2806
 21
19.05
 31
0.0
  0
LINE
  8
0
 62
     0
 10
-29.2806
 20
19.05
 30
0.0
 11
-29.6333
 21
19.05
 31
0.0
  0
LINE
  8
0
 62
     0
 10
-29.6333
 20
19.05
 30
0.0
 11
-29.6333
 21
18.3444
 31
0.0
  0
LINE
  8
0
 62
     0
 10
-29.6333
 20
18.3444
 30
0.0
 11
-29.6333
 21
17.6389
 31
0.0
  0
LINE
  8
0
 62
     0
 10
-29.6333
 20
17.6389
 30
0.0
 11
-35.6306
 21
17.6389
 31
0.0
  0
LINE
  8
0
 62
     0
 10
-35.6306
 20
17.6389
 30
0.0
 11
-41.6278
 21
17.6389
 31
0.0
  0
LINE
  8
0
 62
     0
 10
-41.6278
 20
17.6389
 30
0.0
 11
-41.6278
 21
22.5778
 31
0.0
  0
LINE
  8
0
 62
     0
 10
-41.6278
 20
22.5778
 30
0.0
 11
-41.6278
 21
27.5167
 31
0.0
  0
LINE
  8
0
 62
     0
 10
-41.6278
 20
27.5167
 30
0.0
 11
-36.3361
 21
27.5167
 31
0.0
  0
LINE
  8
0
 62
     0
 10
29.2806
 20
17.6389
 30
0.0
 11
28.9278
 21
17.6389
 31
0.0
  0
LINE
  8
0
 62
     0
 10
28.9278
 20
17.6389
 30
0.0
 11
28.9278
 21
11.6417
 31
0.0
  0
LINE
  8
0
 62
     0
 10
28.9278
 20
11.6417
 30
0.0
 11
28.9278
 21
5.64444
 31
0.0
  0
LINE
  8
0
 62
     0
 10
28.9278
 20
5.64444
 30
0.0
 11
31.75
 21
5.64444
 31
0.0
  0
LINE
  8
0
 62
     0
 10
31.75
 20
5.64444
 30
0.0
 11
34.5722
 21
5.64444
 31
0.0
  0
LINE
  8
0
 62
     0
 10
34.5722
 20
5.64444
 30
0.0
 11
34.5722
 21
5.99722
 31
0.0
  0
LINE
  8
0
 62
     0
 10
34.5722
 20
5.99722
 30
0.0
 11
34.5722
 21
6.35
 31
0.0
  0
LINE
  8
0
 62
     0
 10
34.5722
 20
6.35
 30
0.0
 11
32.1028
 21
6.35
 31
0.0
  0
LINE
  8
0
 62
     0
 10
32.1028
 20
6.35
 30
0.0
 11
29.6333
 21
6.35
 31
0.0
  0
LINE
  8
0
 62
     0
 10
29.6333
 20
6.35
 30
0.0
 11
29.6333
 21
11.9944
 31
0.0
  0
LINE
  8
0
 62
     0
 10
29.6333
 20
11.9944
 30
0.0
 11
29.6333
 21
17.6389
 31
0.0
  0
LINE
  8
0
 62
     0
 10
29.6333
 20
17.6389
 30
0.0
 11
29.2806
 21
17.6389
 31
0.0
  0
LINE
  8
0
 62
     0
 10
-17.6389
 20
8.46667
 30
0.0
 11
-19.7556
 21
8.46667
 31
0.0
  0
LINE
  8
0
 62
     0
 10
-19.7556
 20
8.46667
 30
0.0
 11
-19.7556
 21
6.70278
 31
0.0
  0
LINE
  8
0
 62
     0
 10
-19.7556
 20
6.70278
 30
0.0
 11
-19.7556
 21
4.93889
 31
0.0
  0
LINE
  8
0
 62
     0
 10
-19.7556
 20
4.93889
 30
0.0
 11
-17.2861
 21
4.93889
 31
0.0
  0
LINE
  8
0
 62
     0
 10
-17.2861
 20
4.93889
 30
0.0
 11
-14.8167
 21
4.93889
 31
0.0
  0
LINE
  8
0
 62
     0
 10
-14.8167
 20
4.93889
 30
0.0
 11
-14.8167
 21
5.29167
 31
0.0
  0
LINE
  8
0
 62
     0
 10
-14.8167
 20
5.29167
 30
0.0
 11
-14.8167
 21
5.64444
 31
0.0
  0
LINE
  8
0
 62
     0
 10
-14.8167
 20
5.64444
 30
0.0
 11
-15.1694
 21
5.64444
 31
0.0
  0
LINE
  8
0
 62
     0
 10
-15.1694
 20
5.64444
 30
0.0
 11
-15.5222
 21
5.64444
 31
0.0
  0
LINE
  8
0
 62
     0
 10
-15.5222
 20
5.64444
 30
0.0
 11
-15.5222
 21
7.05556
 31
0.0
  0
LINE
  8
0
 62
     0
 10
-15.5222
 20
7.05556
 30
0.0
 11
-15.5222
 21
8.46667
 31
0.0
  0
LINE
  8
0
 62
     0
 10
-15.5222
 20
8.46667
 30
0.0
 11
-17.6389
 21
8.46667
 31
0.0
  0
ENDSEC
  0
EOF
